
nColumns=19
nRows=24
DataType=double
version=3
OpenSimVersion=4.4-2022-10-11-798caa840
endheader
time	ground_force_calcn_r_vx	ground_force_calcn_r_vy	ground_force_calcn_r_vz	ground_force_calcn_r_px	ground_force_calcn_r_py	ground_force_calcn_r_pz	ground_force_calcn_r_mx	ground_force_calcn_r_my	ground_force_calcn_r_mz	ground_force_calcn_l_vx	ground_force_calcn_l_vy	ground_force_calcn_l_vz	ground_force_calcn_l_px	ground_force_calcn_l_py	ground_force_calcn_l_pz	ground_force_calcn_l_mx	ground_force_calcn_l_my	ground_force_calcn_l_mz
1.22	-64.52460000000001	71.4689	-1.51984	-0.0324259	0	-0.433033	0.000191451	-0.000212055	4.50951e-06	-22.2708	44.4291	0.622552	-0.0715356	0	-0.764427	0.142467	-0.284215	-0.0039825
1.23	-287.93	399.262	-33.8697	-0.09357559999999999	0	-0.431359	-0.601816	0.834516	-0.0707926	-193.355	345.139	18.1403	-0.0963711	0	-0.784543	0.181599	-0.324155	-0.0170375
1.24	-229.049	913.972	-94.7642	-0.17949	0	-0.434849	-0.137535	0.548807	-0.0569024	-282.175	498.361	67.3113	-0.09875680000000001	0	-0.785081	0.490545	-0.866371	-0.117017
1.25	112.605	1828.76	-117.495	-0.232724	0	-0.43995	-0.325214	-5.28163	0.339335	-133.45	672.992	93.8228	-0.154382	0	-0.7778310000000001	-0.0899137	0.453436	0.0632141
1.26	67.14239999999999	1612.58	-73.2153	-0.229339	0	-0.442707	-0.325257	-7.81183	0.354676	60.5544	1298.13	120.175	-0.214546	0	-0.77156	0.249792	5.35489	0.495733
1.27	-268.617	868.284	-49.5565	-0.17698	0	-0.441867	1.56087	-5.04539	0.287961	63.7505	1397.14	115.457	-0.221376	0	-0.7696809999999999	0.288799	6.32926	0.5230359999999999
1.28	-361.085	570.734	-54.6541	-0.116256	0	-0.440836	0.961907	-1.5204	0.145595	-193.144	911.231	64.3128	-0.185414	0	-0.767574	-0.9165	4.32395	0.305175
1.29	-272.712	543.604	-59.0309	-0.110332	0	-0.44096	0.632399	-1.26058	0.136888	-266.719	639.947	34.5241	-0.141208	0	-0.766269	-1.55081	3.72091	0.200737
1.3	-217.852	582.068	-52.763	-0.115535	0	-0.441768	0.926651	-2.47587	0.224431	-210.728	620.818	27.1134	-0.131976	0	-0.765951	-1.98301	5.84208	0.255145
1.31	-186.219	606.449	-42.4315	-0.116266	0	-0.442584	1.17559	-3.82849	0.267869	-173.558	673.38	25.751	-0.134283	0	-0.7654530000000001	-1.96954	7.64152	0.292223
1.32	-149.135	614.578	-43.8273	-0.116449	0	-0.442892	0.959738	-3.95503	0.282044	-146.856	681.236	36.1612	-0.131622	0	-0.765924	-1.61734	7.50252	0.398247
1.33	-118.554	616.348	-49.5108	-0.11662	0	-0.442936	0.6537500000000001	-3.39878	0.273022	-124.581	658.393	52.5446	-0.12645	0	-0.767177	-1.17821	6.22668	0.496935
1.34	-98.7692	605.408	-48.7068	-0.115875	0	-0.443355	0.518302	-3.17694	0.255594	-111.472	628.538	60.7296	-0.121643	0	-0.767854	-0.88967	5.01642	0.484688
1.35	-82.2221	575.2859999999999	-41.2505	-0.114016	0	-0.444295	0.470077	-3.289	0.235836	-102.195	593.84	58.7323	-0.117462	0	-0.767746	-0.779052	4.52697	0.44773
1.36	-72.73399999999999	532.53	-33.2689	-0.110965	0	-0.445347	0.45998	-3.3678	0.210398	-95.8921	563.538	52.3186	-0.11395	0	-0.76744	-0.777102	4.56687	0.423986
1.37	-76.4314	489.831	-26.2333	-0.107009	0	-0.446272	0.532331	-3.41159	0.182711	-97.44929999999999	548.931	48.6608	-0.111318	0	-0.767256	-0.815532	4.59388	0.407232
1.38	-87.0226	455.395	-21.3288	-0.103288	0	-0.446644	0.635422	-3.32521	0.155738	-102.103	549.663	46.8805	-0.109618	0	-0.767246	-0.890926	4.79624	0.409069
1.39	-94.14570000000001	431.386	-19.3128	-0.100629	0	-0.446851	0.6741509999999999	-3.08903	0.138294	-100.398	556.3579999999999	43.8363	-0.109207	0	-0.767085	-0.9779910000000001	5.41959	0.427018
1.4	-92.97239999999999	418.095	-18.1362	-0.0994092	0	-0.447074	0.650792	-2.9266	0.126951	-92.33499999999999	561.912	41.6045	-0.109502	0	-0.766951	-0.973101	5.92188	0.438462
1.41	-86.7016	414.599	-17.6004	-0.09948559999999999	0	-0.447002	0.603437	-2.88558	0.122497	-82.3861	563.899	43.4901	-0.10993	0	-0.76725	-0.852685	5.83628	0.450116
1.42	-78.9006	418.89	-18.9077	-0.100697	0	-0.446479	0.523327	-2.77839	0.12541	-73.78660000000001	564.109	48.4366	-0.110304	0	-0.767583	-0.68792	5.25925	0.451579
1.43	-67.3706	427.737	-21.3258	-0.103275	0	-0.445746	0.418443	-2.6567	0.132456	-66.3164	563.1660000000001	52.2597	-0.110893	0	-0.767662	-0.546158	4.63803	0.430393
1.44	-53.0325	437.292	-23.6899	-0.106488	0	-0.445233	0.315688	-2.60307	0.141019	-58.127	557.648	51.3597	-0.111665	0	-0.767198	-0.456416	4.37868	0.403279
1.45	-40.7553	449.121	-25.8224	-0.110217	0	-0.444762	0.24687	-2.72049	0.156416	-49.0211	547.768	46.0816	-0.112455	0	-0.766436	-0.40716	4.54965	0.382744
